<svg width="24" height="24" viewBox="0 0 24 24" fill="none" xmlns="http://www.w3.org/2000/svg">
<path d="M14 2.09961C19.0797 2.09961 21.9004 6.08981 21.9004 10C21.9004 13.3249 20.1081 16.2936 17.9395 18.3965C16.8478 19.4551 15.6342 20.3212 14.4482 20.9268C13.2751 21.5258 12.0683 21.9004 11 21.9004C10.1809 21.9004 9.32844 21.7695 8.66406 21.2949C7.9393 20.7771 7.59961 19.9718 7.59961 19C7.59961 18.4852 7.82088 17.7623 7.83151 17.2559C7.83891 16.9038 7.66081 16.6787 7.31912 16.6787C6.39976 16.6787 6.16274 18.1504 4.75 18.1504C4.28415 18.1504 3.84554 18.027 3.46387 17.7705C3.08865 17.5183 2.81516 17.1685 2.61914 16.7832C2.23824 16.0344 2.09961 15.0544 2.09961 14C2.09961 7.32138 7.51216 2.09961 14 2.09961Z" fill="#924FF7" fill-opacity="0.4"/>
<path d="M8.6001 11.85C8.6001 11.0875 7.9876 10.475 7.2251 10.475C6.4626 10.475 5.8501 11.0875 5.8501 11.85C5.8501 12.6125 6.4626 13.225 7.2251 13.225C7.9876 13.225 8.6001 12.6125 8.6001 11.85ZM11.3876 8.0875C11.3876 7.325 10.7751 6.7125 10.0126 6.7125C9.2501 6.7125 8.6376 7.325 8.6376 8.0875C8.6376 8.85 9.2501 9.4625 10.0126 9.4625C10.7751 9.4625 11.3876 8.85 11.3876 8.0875ZM16.0376 6.9375C16.0376 6.175 15.4251 5.5625 14.6626 5.5625C13.9001 5.5625 13.2876 6.175 13.2876 6.9375C13.2876 7.7 13.9001 8.3125 14.6626 8.3125C15.4251 8.3125 16.0376 7.7 16.0376 6.9375ZM18.4751 10.625C18.4751 9.8625 17.8626 9.25 17.1001 9.25C16.3376 9.25 15.7251 9.8625 15.7251 10.625C15.7251 11.3875 16.3376 12 17.1001 12C17.8626 12 18.4751 11.3875 18.4751 10.625ZM16.1376 14.8625C16.1376 14.1 15.5251 13.4875 14.7626 13.4875C14.0001 13.4875 13.3876 14.1 13.3876 14.8625C13.3876 15.625 14.0001 16.2375 14.7626 16.2375C15.5251 16.2375 16.1376 15.625 16.1376 14.8625Z" fill="#924FF7"/>
</svg>
