<svg width="200" height="200" viewBox="0 0 200 200" fill="none" xmlns="http://www.w3.org/2000/svg">
  <rect x="18" y="18" width="164" height="164" rx="40" fill="url(#bg)"/>
  <rect x="35" y="46" width="130" height="108" rx="18" fill="white" fill-opacity="0.12" stroke="white" stroke-opacity="0.34" stroke-width="6"/>
  <rect x="35" y="46" width="130" height="24" rx="18" fill="white" fill-opacity="0.16"/>
  <circle cx="52" cy="58" r="4" fill="#FCA5A5" fill-opacity="0.95"/>
  <circle cx="66" cy="58" r="4" fill="#FDE68A" fill-opacity="0.95"/>
  <circle cx="80" cy="58" r="4" fill="#86EFAC" fill-opacity="0.95"/>
  <rect x="50" y="82" width="100" height="54" rx="12" fill="#0F172A" fill-opacity="0.34" stroke="white" stroke-opacity="0.16" stroke-width="4"/>
  <path d="M84 97L74 109L84 121" stroke="white" stroke-width="7" stroke-linecap="round" stroke-linejoin="round"/>
  <path d="M116 97L126 109L116 121" stroke="white" stroke-width="7" stroke-linecap="round" stroke-linejoin="round"/>
  <path d="M96 125L104 93" stroke="#D9F99D" stroke-width="6" stroke-linecap="round"/>
  <rect x="134" y="40" width="18" height="18" rx="9" fill="#D9F99D" fill-opacity="0.95"/>
  <path d="M143 45V53" stroke="#0F172A" stroke-width="3.4" stroke-linecap="round"/>
  <path d="M139 49H147" stroke="#0F172A" stroke-width="3.4" stroke-linecap="round"/>
  <defs>
    <linearGradient id="bg" x1="28" y1="24" x2="176" y2="180" gradientUnits="userSpaceOnUse">
      <stop stop-color="#0F4C81"/>
      <stop offset="1" stop-color="#2563EB"/>
    </linearGradient>
  </defs>
</svg>
