<?xml version="1.0" encoding="utf-8"?>
<!-- Generator: Adobe Illustrator 23.1.1, SVG Export Plug-In . SVG Version: 6.00 Build 0)  -->
<svg version="1.1" id="Layer_1" xmlns="http://www.w3.org/2000/svg" xmlns:xlink="http://www.w3.org/1999/xlink" x="0px" y="0px"
	 viewBox="0 0 1024 1024" style="enable-background:new 0 0 1024 1024;" xml:space="preserve">
<style type="text/css">
	.st0{opacity:0.9;}
	.st1{fill:#226DB4;}
	.st2{fill:#E42527;}
	.st3{fill:#FFFFFF;}
</style>
<g>
	<g class="st0">
		<path class="st1" d="M606.54,1023.79l-479.8-277.01c-27.76-16.02-45-45.89-45-77.94v-92.75c0-28.63,13.81-55.81,36.93-72.69
			L378,314.07l196.02,113.17L327.26,607.4l279.28,161.24V1023.79z M381.83,385.57l-227.78,166.3c-7.71,5.63-12.31,14.69-12.31,24.23
			v92.75c0,10.68,5.75,20.64,15,25.98l389.8,225.05V803.29L270.66,644c-11.76-6.79-19.22-18.94-19.94-32.5
			c-0.73-13.56,5.39-26.44,16.36-34.45l197.14-143.93L381.83,385.57z"/>
	</g>
	<g class="st0">
		<path class="st2" d="M651.92,713.48L455.9,600.31l246.62-180.05l-286.3-165.23V-0.13l480.77,277.57c27.76,16.03,45,45.89,45,77.94
			v100.6c0,28.63-13.81,55.81-36.93,72.69L651.92,713.48z M565.71,594.42l82.38,47.56l221.58-161.77
			c7.71-5.63,12.31-14.69,12.31-24.23v-100.6c0-10.68-5.75-20.64-15-25.98L476.22,103.79v116.58l282.9,163.27l0,0
			c11.76,6.79,19.22,18.94,19.95,32.5c0.73,13.56-5.38,26.44-16.35,34.45L565.71,594.42z M729.14,435.61
			C729.14,435.61,729.14,435.61,729.14,435.61L729.14,435.61z"/>
	</g>
</g>
</svg>
