<svg width="200" height="200" viewBox="0 0 200 200" fill="none" xmlns="http://www.w3.org/2000/svg">
  <rect x="18" y="18" width="164" height="164" rx="40" fill="url(#bg)"/>
  <rect x="58" y="34" width="84" height="132" rx="26" fill="white" fill-opacity="0.12" stroke="white" stroke-opacity="0.34" stroke-width="6"/>
  <rect x="82" y="47" width="36" height="6" rx="3" fill="white" fill-opacity="0.72"/>
  <rect x="71" y="62" width="58" height="56" rx="14" fill="#0F172A" fill-opacity="0.34" stroke="white" stroke-opacity="0.16" stroke-width="4"/>
  <path d="M92 78L82 90L92 102" stroke="white" stroke-width="7" stroke-linecap="round" stroke-linejoin="round"/>
  <path d="M108 78L118 90L108 102" stroke="white" stroke-width="7" stroke-linecap="round" stroke-linejoin="round"/>
  <path d="M98 105L102 75" stroke="#D9F99D" stroke-width="6" stroke-linecap="round"/>
  <rect x="71" y="127" width="58" height="10" rx="5" fill="white" fill-opacity="0.8"/>
  <rect x="71" y="144" width="42" height="8" rx="4" fill="#C4B5FD"/>
  <rect x="118" y="144" width="11" height="8" rx="4" fill="#93C5FD"/>
  <circle cx="100" cy="148" r="3" fill="white" fill-opacity="0.22"/>
  <circle cx="100" cy="149" r="2" fill="white" fill-opacity="0.7"/>
  <rect x="130" y="44" width="18" height="18" rx="9" fill="#D9F99D" fill-opacity="0.95"/>
  <path d="M139 49V57" stroke="#0F172A" stroke-width="3.4" stroke-linecap="round"/>
  <path d="M135 53H143" stroke="#0F172A" stroke-width="3.4" stroke-linecap="round"/>
  <defs>
    <linearGradient id="bg" x1="28" y1="24" x2="176" y2="180" gradientUnits="userSpaceOnUse">
      <stop stop-color="#0F4C81"/>
      <stop offset="1" stop-color="#2563EB"/>
    </linearGradient>
  </defs>
</svg>
